<svg xmlns="http://www.w3.org/2000/svg" width="800" height="800"><g stroke-width="2.25" stroke="none" fill="#dff6f6ff"><circle r="2.711"/><circle r="2.711" cx="44.444"/><circle r="2.711" cx="88.889"/><circle r="2.711" cx="133.333"/><circle r="2.711" cx="177.778"/><circle r="2.711" cx="222.222"/><circle r="2.711" cx="266.667"/><circle r="2.711" cx="311.111"/><circle r="2.711" cx="355.556"/><circle r="2.711" cx="400"/><circle r="2.711" cx="444.444"/><circle r="2.711" cx="488.889"/><circle r="2.711" cx="533.333"/><circle r="2.711" cx="577.778"/><circle r="2.711" cx="622.222"/><circle r="2.711" cx="666.667"/><circle r="2.711" cx="711.111"/><circle r="2.711" cx="755.556"/><circle r="2.711" cx="800"/><circle r="2.711" cy="57.143"/><circle r="2.711" cx="44.444" cy="57.143"/><circle r="2.711" cx="88.889" cy="57.143"/><circle r="2.711" cx="133.333" cy="57.143"/><circle r="2.711" cx="177.778" cy="57.143"/><circle r="2.711" cx="222.222" cy="57.143"/><circle r="2.711" cx="266.667" cy="57.143"/><circle r="2.711" cx="311.111" cy="57.143"/><circle r="2.711" cx="355.556" cy="57.143"/><circle r="2.711" cx="400" cy="57.143"/><circle r="2.711" cx="444.444" cy="57.143"/><circle r="2.711" cx="488.889" cy="57.143"/><circle r="2.711" cx="533.333" cy="57.143"/><circle r="2.711" cx="577.778" cy="57.143"/><circle r="2.711" cx="622.222" cy="57.143"/><circle r="2.711" cx="666.667" cy="57.143"/><circle r="2.711" cx="711.111" cy="57.143"/><circle r="2.711" cx="755.556" cy="57.143"/><circle r="2.711" cx="800" cy="57.143"/><circle r="2.711" cy="114.286"/><circle r="2.711" cx="44.444" cy="114.286"/><circle r="2.711" cx="88.889" cy="114.286"/><circle r="2.711" cx="133.333" cy="114.286"/><circle r="2.711" cx="177.778" cy="114.286"/><circle r="2.711" cx="222.222" cy="114.286"/><circle r="2.711" cx="266.667" cy="114.286"/><circle r="2.711" cx="311.111" cy="114.286"/><circle r="2.711" cx="355.556" cy="114.286"/><circle r="2.711" cx="400" cy="114.286"/><circle r="2.711" cx="444.444" cy="114.286"/><circle r="2.711" cx="488.889" cy="114.286"/><circle r="2.711" cx="533.333" cy="114.286"/><circle r="2.711" cx="577.778" cy="114.286"/><circle r="2.711" cx="622.222" cy="114.286"/><circle r="2.711" cx="666.667" cy="114.286"/><circle r="2.711" cx="711.111" cy="114.286"/><circle r="2.711" cx="755.556" cy="114.286"/><circle r="2.711" cx="800" cy="114.286"/><circle r="2.711" cy="171.429"/><circle r="2.711" cx="44.444" cy="171.429"/><circle r="2.711" cx="88.889" cy="171.429"/><circle r="2.711" cx="133.333" cy="171.429"/><circle r="2.711" cx="177.778" cy="171.429"/><circle r="2.711" cx="222.222" cy="171.429"/><circle r="2.711" cx="266.667" cy="171.429"/><circle r="2.711" cx="311.111" cy="171.429"/><circle r="2.711" cx="355.556" cy="171.429"/><circle r="2.711" cx="400" cy="171.429"/><circle r="2.711" cx="444.444" cy="171.429"/><circle r="2.711" cx="488.889" cy="171.429"/><circle r="2.711" cx="533.333" cy="171.429"/><circle r="2.711" cx="577.778" cy="171.429"/><circle r="2.711" cx="622.222" cy="171.429"/><circle r="2.711" cx="666.667" cy="171.429"/><circle r="2.711" cx="711.111" cy="171.429"/><circle r="2.711" cx="755.556" cy="171.429"/><circle r="2.711" cx="800" cy="171.429"/><circle r="2.711" cy="228.571"/><circle r="2.711" cx="44.444" cy="228.571"/><circle r="2.711" cx="88.889" cy="228.571"/><circle r="2.711" cx="133.333" cy="228.571"/><circle r="2.711" cx="177.778" cy="228.571"/><circle r="2.711" cx="222.222" cy="228.571"/><circle r="2.711" cx="266.667" cy="228.571"/><circle r="2.711" cx="311.111" cy="228.571"/><circle r="2.711" cx="355.556" cy="228.571"/><circle r="2.711" cx="400" cy="228.571"/><circle r="2.711" cx="444.444" cy="228.571"/><circle r="2.711" cx="488.889" cy="228.571"/><circle r="2.711" cx="533.333" cy="228.571"/><circle r="2.711" cx="577.778" cy="228.571"/><circle r="2.711" cx="622.222" cy="228.571"/><circle r="2.711" cx="666.667" cy="228.571"/><circle r="2.711" cx="711.111" cy="228.571"/><circle r="2.711" cx="755.556" cy="228.571"/><circle r="2.711" cx="800" cy="228.571"/><circle r="2.711" cy="285.714"/><circle r="2.711" cx="44.444" cy="285.714"/><circle r="2.711" cx="88.889" cy="285.714"/><circle r="2.711" cx="133.333" cy="285.714"/><circle r="2.711" cx="177.778" cy="285.714"/><circle r="2.711" cx="222.222" cy="285.714"/><circle r="2.711" cx="266.667" cy="285.714"/><circle r="2.711" cx="311.111" cy="285.714"/><circle r="2.711" cx="355.556" cy="285.714"/><circle r="2.711" cx="400" cy="285.714"/><circle r="2.711" cx="444.444" cy="285.714"/><circle r="2.711" cx="488.889" cy="285.714"/><circle r="2.711" cx="533.333" cy="285.714"/><circle r="2.711" cx="577.778" cy="285.714"/><circle r="2.711" cx="622.222" cy="285.714"/><circle r="2.711" cx="666.667" cy="285.714"/><circle r="2.711" cx="711.111" cy="285.714"/><circle r="2.711" cx="755.556" cy="285.714"/><circle r="2.711" cx="800" cy="285.714"/><circle r="2.711" cy="342.857"/><circle r="2.711" cx="44.444" cy="342.857"/><circle r="2.711" cx="88.889" cy="342.857"/><circle r="2.711" cx="133.333" cy="342.857"/><circle r="2.711" cx="177.778" cy="342.857"/><circle r="2.711" cx="222.222" cy="342.857"/><circle r="2.711" cx="266.667" cy="342.857"/><circle r="2.711" cx="311.111" cy="342.857"/><circle r="2.711" cx="355.556" cy="342.857"/><circle r="2.711" cx="400" cy="342.857"/><circle r="2.711" cx="444.444" cy="342.857"/><circle r="2.711" cx="488.889" cy="342.857"/><circle r="2.711" cx="533.333" cy="342.857"/><circle r="2.711" cx="577.778" cy="342.857"/><circle r="2.711" cx="622.222" cy="342.857"/><circle r="2.711" cx="666.667" cy="342.857"/><circle r="2.711" cx="711.111" cy="342.857"/><circle r="2.711" cx="755.556" cy="342.857"/><circle r="2.711" cx="800" cy="342.857"/><circle r="2.711" cy="400"/><circle r="2.711" cx="44.444" cy="400"/><circle r="2.711" cx="88.889" cy="400"/><circle r="2.711" cx="133.333" cy="400"/><circle r="2.711" cx="177.778" cy="400"/><circle r="2.711" cx="222.222" cy="400"/><circle r="2.711" cx="266.667" cy="400"/><circle r="2.711" cx="311.111" cy="400"/><circle r="2.711" cx="355.556" cy="400"/><circle r="2.711" cx="400" cy="400"/><circle r="2.711" cx="444.444" cy="400"/><circle r="2.711" cx="488.889" cy="400"/><circle r="2.711" cx="533.333" cy="400"/><circle r="2.711" cx="577.778" cy="400"/><circle r="2.711" cx="622.222" cy="400"/><circle r="2.711" cx="666.667" cy="400"/><circle r="2.711" cx="711.111" cy="400"/><circle r="2.711" cx="755.556" cy="400"/><circle r="2.711" cx="800" cy="400"/><circle r="2.711" cy="457.143"/><circle r="2.711" cx="44.444" cy="457.143"/><circle r="2.711" cx="88.889" cy="457.143"/><circle r="2.711" cx="133.333" cy="457.143"/><circle r="2.711" cx="177.778" cy="457.143"/><circle r="2.711" cx="222.222" cy="457.143"/><circle r="2.711" cx="266.667" cy="457.143"/><circle r="2.711" cx="311.111" cy="457.143"/><circle r="2.711" cx="355.556" cy="457.143"/><circle r="2.711" cx="400" cy="457.143"/><circle r="2.711" cx="444.444" cy="457.143"/><circle r="2.711" cx="488.889" cy="457.143"/><circle r="2.711" cx="533.333" cy="457.143"/><circle r="2.711" cx="577.778" cy="457.143"/><circle r="2.711" cx="622.222" cy="457.143"/><circle r="2.711" cx="666.667" cy="457.143"/><circle r="2.711" cx="711.111" cy="457.143"/><circle r="2.711" cx="755.556" cy="457.143"/><circle r="2.711" cx="800" cy="457.143"/><circle r="2.711" cy="514.286"/><circle r="2.711" cx="44.444" cy="514.286"/><circle r="2.711" cx="88.889" cy="514.286"/><circle r="2.711" cx="133.333" cy="514.286"/><circle r="2.711" cx="177.778" cy="514.286"/><circle r="2.711" cx="222.222" cy="514.286"/><circle r="2.711" cx="266.667" cy="514.286"/><circle r="2.711" cx="311.111" cy="514.286"/><circle r="2.711" cx="355.556" cy="514.286"/><circle r="2.711" cx="400" cy="514.286"/><circle r="2.711" cx="444.444" cy="514.286"/><circle r="2.711" cx="488.889" cy="514.286"/><circle r="2.711" cx="533.333" cy="514.286"/><circle r="2.711" cx="577.778" cy="514.286"/><circle r="2.711" cx="622.222" cy="514.286"/><circle r="2.711" cx="666.667" cy="514.286"/><circle r="2.711" cx="711.111" cy="514.286"/><circle r="2.711" cx="755.556" cy="514.286"/><circle r="2.711" cx="800" cy="514.286"/><circle r="2.711" cy="571.429"/><circle r="2.711" cx="44.444" cy="571.429"/><circle r="2.711" cx="88.889" cy="571.429"/><circle r="2.711" cx="133.333" cy="571.429"/><circle r="2.711" cx="177.778" cy="571.429"/><circle r="2.711" cx="222.222" cy="571.429"/><circle r="2.711" cx="266.667" cy="571.429"/><circle r="2.711" cx="311.111" cy="571.429"/><circle r="2.711" cx="355.556" cy="571.429"/><circle r="2.711" cx="400" cy="571.429"/><circle r="2.711" cx="444.444" cy="571.429"/><circle r="2.711" cx="488.889" cy="571.429"/><circle r="2.711" cx="533.333" cy="571.429"/><circle r="2.711" cx="577.778" cy="571.429"/><circle r="2.711" cx="622.222" cy="571.429"/><circle r="2.711" cx="666.667" cy="571.429"/><circle r="2.711" cx="711.111" cy="571.429"/><circle r="2.711" cx="755.556" cy="571.429"/><circle r="2.711" cx="800" cy="571.429"/><circle r="2.711" cy="628.571"/><circle r="2.711" cx="44.444" cy="628.571"/><circle r="2.711" cx="88.889" cy="628.571"/><circle r="2.711" cx="133.333" cy="628.571"/><circle r="2.711" cx="177.778" cy="628.571"/><circle r="2.711" cx="222.222" cy="628.571"/><circle r="2.711" cx="266.667" cy="628.571"/><circle r="2.711" cx="311.111" cy="628.571"/><circle r="2.711" cx="355.556" cy="628.571"/><circle r="2.711" cx="400" cy="628.571"/><circle r="2.711" cx="444.444" cy="628.571"/><circle r="2.711" cx="488.889" cy="628.571"/><circle r="2.711" cx="533.333" cy="628.571"/><circle r="2.711" cx="577.778" cy="628.571"/><circle r="2.711" cx="622.222" cy="628.571"/><circle r="2.711" cx="666.667" cy="628.571"/><circle r="2.711" cx="711.111" cy="628.571"/><circle r="2.711" cx="755.556" cy="628.571"/><circle r="2.711" cx="800" cy="628.571"/><circle r="2.711" cy="685.714"/><circle r="2.711" cx="44.444" cy="685.714"/><circle r="2.711" cx="88.889" cy="685.714"/><circle r="2.711" cx="133.333" cy="685.714"/><circle r="2.711" cx="177.778" cy="685.714"/><circle r="2.711" cx="222.222" cy="685.714"/><circle r="2.711" cx="266.667" cy="685.714"/><circle r="2.711" cx="311.111" cy="685.714"/><circle r="2.711" cx="355.556" cy="685.714"/><circle r="2.711" cx="400" cy="685.714"/><circle r="2.711" cx="444.444" cy="685.714"/><circle r="2.711" cx="488.889" cy="685.714"/><circle r="2.711" cx="533.333" cy="685.714"/><circle r="2.711" cx="577.778" cy="685.714"/><circle r="2.711" cx="622.222" cy="685.714"/><circle r="2.711" cx="666.667" cy="685.714"/><circle r="2.711" cx="711.111" cy="685.714"/><circle r="2.711" cx="755.556" cy="685.714"/><circle r="2.711" cx="800" cy="685.714"/><circle r="2.711" cy="742.857"/><circle r="2.711" cx="44.444" cy="742.857"/><circle r="2.711" cx="88.889" cy="742.857"/><circle r="2.711" cx="133.333" cy="742.857"/><circle r="2.711" cx="177.778" cy="742.857"/><circle r="2.711" cx="222.222" cy="742.857"/><circle r="2.711" cx="266.667" cy="742.857"/><circle r="2.711" cx="311.111" cy="742.857"/><circle r="2.711" cx="355.556" cy="742.857"/><circle r="2.711" cx="400" cy="742.857"/><circle r="2.711" cx="444.444" cy="742.857"/><circle r="2.711" cx="488.889" cy="742.857"/><circle r="2.711" cx="533.333" cy="742.857"/><circle r="2.711" cx="577.778" cy="742.857"/><circle r="2.711" cx="622.222" cy="742.857"/><circle r="2.711" cx="666.667" cy="742.857"/><circle r="2.711" cx="711.111" cy="742.857"/><circle r="2.711" cx="755.556" cy="742.857"/><circle r="2.711" cx="800" cy="742.857"/><circle r="2.711" cy="800"/><circle r="2.711" cx="44.444" cy="800"/><circle r="2.711" cx="88.889" cy="800"/><circle r="2.711" cx="133.333" cy="800"/><circle r="2.711" cx="177.778" cy="800"/><circle r="2.711" cx="222.222" cy="800"/><circle r="2.711" cx="266.667" cy="800"/><circle r="2.711" cx="311.111" cy="800"/><circle r="2.711" cx="355.556" cy="800"/><circle r="2.711" cx="400" cy="800"/><circle r="2.711" cx="444.444" cy="800"/><circle r="2.711" cx="488.889" cy="800"/><circle r="2.711" cx="533.333" cy="800"/><circle r="2.711" cx="577.778" cy="800"/><circle r="2.711" cx="622.222" cy="800"/><circle r="2.711" cx="666.667" cy="800"/><circle r="2.711" cx="711.111" cy="800"/><circle r="2.711" cx="755.556" cy="800"/><circle r="2.711" cx="800" cy="800"/></g></svg>